<svg width="63" height="39" viewBox="0 0 63 39" fill="none" xmlns="http://www.w3.org/2000/svg">
<path d="M40.8889 14.3957H36.8406C35.3542 14.3948 34.1493 13.1909 34.1484 11.7045C34.1484 10.218 35.3542 9.01409 36.8406 9.01318H40.8889" stroke="#9E9E9E" stroke-width="1.5" stroke-linecap="round" stroke-linejoin="round"/>
<path d="M37.2985 11.6427H36.9869" stroke="#9E9E9E" stroke-width="1.5" stroke-linecap="round" stroke-linejoin="round"/>
<path fill-rule="evenodd" clip-rule="evenodd" d="M26.9977 3H35.6411C38.5392 3 40.8888 5.34951 40.8888 8.24766V15.4247C40.8888 18.3229 38.5392 20.6724 35.6411 20.6724H26.9977C24.0995 20.6724 21.75 18.3229 21.75 15.4247V8.24766C21.75 5.34951 24.0995 3 26.9977 3Z" stroke="#9E9E9E" stroke-width="1.5" stroke-linecap="round" stroke-linejoin="round"/>
<path d="M26.2856 7.5382H31.6846" stroke="#9E9E9E" stroke-width="1.5" stroke-linecap="round" stroke-linejoin="round"/>
<path d="M12.2119 36L13.5669 29H14.2119L16.1019 33.97L17.9869 29H18.6319L19.9919 36H19.1369L18.1519 30.92L16.3769 35.62H15.8219L14.0469 30.92L13.0669 36H12.2119ZM24.2451 31H25.1351L22.4001 38.5H21.5101L22.4151 36L20.6201 31H21.5401L22.8351 34.845L24.2451 31ZM32.175 36.13C31.7016 36.13 31.2566 36.0367 30.84 35.85C30.4233 35.66 30.0566 35.4 29.74 35.07C29.4266 34.7367 29.18 34.35 29 33.91C28.8233 33.47 28.735 33 28.735 32.5C28.735 32 28.8233 31.53 29 31.09C29.18 30.65 29.4266 30.265 29.74 29.935C30.0566 29.6017 30.4233 29.3417 30.84 29.155C31.2566 28.965 31.7016 28.87 32.175 28.87C32.7416 28.87 33.2633 29.0017 33.74 29.265C34.2166 29.5283 34.6116 29.8783 34.925 30.315L34.18 30.715C33.9466 30.4083 33.6516 30.165 33.295 29.985C32.9416 29.8017 32.5683 29.71 32.175 29.71C31.8116 29.71 31.4716 29.7833 31.155 29.93C30.8416 30.0767 30.5666 30.2783 30.33 30.535C30.0933 30.7917 29.9083 31.0883 29.775 31.425C29.6416 31.7617 29.575 32.12 29.575 32.5C29.575 32.8833 29.6416 33.2433 29.775 33.58C29.9116 33.9167 30.0983 34.2133 30.335 34.47C30.575 34.7267 30.8516 34.9283 31.165 35.075C31.4816 35.2183 31.8183 35.29 32.175 35.29C32.5816 35.29 32.9583 35.1983 33.305 35.015C33.655 34.8283 33.9466 34.585 34.18 34.285L34.925 34.69C34.6116 35.1267 34.2166 35.4767 33.74 35.74C33.2633 36 32.7416 36.13 32.175 36.13ZM39.8737 31H40.7137V36H39.8737L39.8387 35.155C39.682 35.445 39.4654 35.68 39.1887 35.86C38.9154 36.04 38.5887 36.13 38.2087 36.13C37.842 36.13 37.4987 36.0617 37.1787 35.925C36.8587 35.785 36.5754 35.5933 36.3287 35.35C36.0854 35.1033 35.8954 34.82 35.7587 34.5C35.622 34.18 35.5537 33.835 35.5537 33.465C35.5537 33.1083 35.6204 32.7717 35.7537 32.455C35.887 32.1383 36.072 31.8617 36.3087 31.625C36.5487 31.385 36.8254 31.1983 37.1387 31.065C37.452 30.9283 37.7887 30.86 38.1487 30.86C38.542 30.86 38.887 30.9533 39.1837 31.14C39.4804 31.3233 39.7204 31.5617 39.9037 31.855L39.8737 31ZM38.1937 35.315C38.5237 35.315 38.8087 35.235 39.0487 35.075C39.292 34.9117 39.4787 34.6917 39.6087 34.415C39.742 34.1383 39.8087 33.8333 39.8087 33.5C39.8087 33.16 39.742 32.8533 39.6087 32.58C39.4754 32.3033 39.287 32.085 39.0437 31.925C38.8037 31.7617 38.5204 31.68 38.1937 31.68C37.8637 31.68 37.5637 31.7617 37.2937 31.925C37.0237 32.0883 36.8087 32.3083 36.6487 32.585C36.492 32.8583 36.4137 33.1633 36.4137 33.5C36.4137 33.8367 36.4954 34.1433 36.6587 34.42C36.822 34.6933 37.0387 34.9117 37.3087 35.075C37.5787 35.235 37.8737 35.315 38.1937 35.315ZM41.9131 36V31H42.7531V31.625C42.9298 31.3917 43.1531 31.2067 43.4231 31.07C43.6931 30.93 43.9864 30.86 44.3031 30.86C44.4964 30.86 44.6831 30.885 44.8631 30.935L44.5231 31.775C44.3864 31.7317 44.2531 31.71 44.1231 31.71C43.8731 31.71 43.6431 31.7717 43.4331 31.895C43.2264 32.015 43.0614 32.1783 42.9381 32.385C42.8148 32.5917 42.7531 32.8217 42.7531 33.075V36H41.9131ZM49.4486 28.5H50.2886V36H49.4486V35.15C49.2786 35.4433 49.0503 35.68 48.7636 35.86C48.477 36.04 48.1403 36.13 47.7536 36.13C47.3903 36.13 47.0503 36.0617 46.7336 35.925C46.417 35.7883 46.137 35.6 45.8936 35.36C45.6536 35.1167 45.4653 34.8367 45.3286 34.52C45.192 34.2033 45.1236 33.8633 45.1236 33.5C45.1236 33.1367 45.192 32.7967 45.3286 32.48C45.4653 32.16 45.6536 31.88 45.8936 31.64C46.137 31.3967 46.417 31.2067 46.7336 31.07C47.0503 30.9333 47.3903 30.865 47.7536 30.865C48.1403 30.865 48.477 30.955 48.7636 31.135C49.0503 31.315 49.2786 31.5517 49.4486 31.845V28.5ZM47.7636 35.315C48.0936 35.315 48.3786 35.235 48.6186 35.075C48.862 34.9117 49.0486 34.6917 49.1786 34.415C49.312 34.1383 49.3786 33.8333 49.3786 33.5C49.3786 33.16 49.312 32.8533 49.1786 32.58C49.0453 32.3033 48.857 32.085 48.6136 31.925C48.3736 31.7617 48.0903 31.68 47.7636 31.68C47.4336 31.68 47.1336 31.7617 46.8636 31.925C46.597 32.0883 46.3836 32.3083 46.2236 32.585C46.0636 32.8583 45.9836 33.1633 45.9836 33.5C45.9836 33.8367 46.0653 34.1433 46.2286 34.42C46.392 34.6933 46.6086 34.9117 46.8786 35.075C47.1486 35.235 47.4436 35.315 47.7636 35.315Z" fill="#9E9E9E"/>
</svg>
