<svg width="63" height="38" viewBox="0 0 63 38" fill="none" xmlns="http://www.w3.org/2000/svg">
<path d="M28.3848 20.7733V17.7156C28.3848 16.9351 29.0222 16.3023 29.8084 16.3023H32.6826C33.0602 16.3023 33.4223 16.4512 33.6893 16.7163C33.9563 16.9813 34.1063 17.3408 34.1063 17.7156V20.7733C34.1039 21.0978 34.2321 21.4099 34.4624 21.6402C34.6927 21.8705 35.0061 22 35.3329 22H37.2938C38.2096 22.0023 39.0888 21.6428 39.7372 21.0008C40.3856 20.3588 40.75 19.487 40.75 18.5778V9.86686C40.75 9.13246 40.4221 8.43584 39.8546 7.96467L33.184 2.67587C32.0237 1.74856 30.3611 1.7785 29.2354 2.74698L22.717 7.96467C22.1227 8.42195 21.7676 9.12064 21.75 9.86686V18.5689C21.75 20.4639 23.2974 22 25.2062 22H27.1223C27.8012 22 28.353 21.4562 28.3579 20.7822L28.3848 20.7733Z" fill="#246BFD"/>
<path d="M22.5059 29H23.7259V36H22.5059V32.86H19.6059V36H18.3859V29H19.6059V31.64H22.5059V29ZM27.2508 36.13C26.7908 36.13 26.3708 36.0117 25.9908 35.775C25.6141 35.5383 25.3124 35.2217 25.0858 34.825C24.8624 34.425 24.7508 33.9833 24.7508 33.5C24.7508 33.1333 24.8158 32.7917 24.9458 32.475C25.0758 32.155 25.2541 31.875 25.4808 31.635C25.7108 31.3917 25.9774 31.2017 26.2808 31.065C26.5841 30.9283 26.9074 30.86 27.2508 30.86C27.7108 30.86 28.1291 30.9783 28.5058 31.215C28.8858 31.4517 29.1874 31.77 29.4108 32.17C29.6374 32.57 29.7508 33.0133 29.7508 33.5C29.7508 33.8633 29.6858 34.2033 29.5558 34.52C29.4258 34.8367 29.2458 35.1167 29.0158 35.36C28.7891 35.6 28.5241 35.7883 28.2208 35.925C27.9208 36.0617 27.5974 36.13 27.2508 36.13ZM27.2508 34.91C27.4941 34.91 27.7124 34.845 27.9058 34.715C28.0991 34.585 28.2508 34.4133 28.3608 34.2C28.4741 33.9867 28.5308 33.7533 28.5308 33.5C28.5308 33.24 28.4724 33.0033 28.3558 32.79C28.2424 32.5733 28.0874 32.4017 27.8908 32.275C27.6974 32.145 27.4841 32.08 27.2508 32.08C27.0108 32.08 26.7941 32.145 26.6008 32.275C26.4074 32.405 26.2541 32.5783 26.1408 32.795C26.0274 33.0117 25.9708 33.2467 25.9708 33.5C25.9708 33.7633 26.0291 34.0017 26.1458 34.215C26.2624 34.4283 26.4174 34.5983 26.6108 34.725C26.8074 34.8483 27.0208 34.91 27.2508 34.91ZM30.7293 36V31H31.9493V31.445C32.1193 31.265 32.3226 31.1233 32.5593 31.02C32.796 30.9133 33.051 30.86 33.3243 30.86C33.671 30.86 33.9893 30.9417 34.2793 31.105C34.5726 31.2683 34.806 31.4867 34.9793 31.76C35.156 31.4867 35.3893 31.2683 35.6793 31.105C35.9693 30.9417 36.2876 30.86 36.6343 30.86C37.001 30.86 37.3326 30.95 37.6293 31.13C37.9293 31.3067 38.1676 31.545 38.3443 31.845C38.5243 32.1417 38.6143 32.4733 38.6143 32.84V36H37.3943V33.165C37.3943 32.9717 37.346 32.795 37.2493 32.635C37.156 32.4717 37.0293 32.3417 36.8693 32.245C36.7126 32.145 36.536 32.095 36.3393 32.095C36.1426 32.095 35.9643 32.1433 35.8043 32.24C35.6476 32.3333 35.521 32.46 35.4243 32.62C35.3276 32.78 35.2793 32.9617 35.2793 33.165V36H34.0593V33.165C34.0593 32.9617 34.0126 32.78 33.9193 32.62C33.826 32.46 33.6993 32.3333 33.5393 32.24C33.3793 32.1433 33.201 32.095 33.0043 32.095C32.811 32.095 32.6343 32.145 32.4743 32.245C32.3143 32.3417 32.186 32.4717 32.0893 32.635C31.996 32.795 31.9493 32.9717 31.9493 33.165V36H30.7293ZM41.9184 36.13C41.4584 36.13 41.0384 36.0117 40.6584 35.775C40.2817 35.5383 39.98 35.22 39.7534 34.82C39.53 34.42 39.4184 33.9783 39.4184 33.495C39.4184 33.1317 39.4834 32.7917 39.6134 32.475C39.7434 32.155 39.9217 31.875 40.1484 31.635C40.3784 31.3917 40.645 31.2017 40.9484 31.065C41.2517 30.9283 41.575 30.86 41.9184 30.86C42.3084 30.86 42.665 30.9433 42.9884 31.11C43.315 31.2733 43.5917 31.4983 43.8184 31.785C44.045 32.0717 44.21 32.3983 44.3134 32.765C44.4167 33.1317 44.44 33.515 44.3834 33.915H40.7284C40.775 34.1017 40.8517 34.27 40.9584 34.42C41.065 34.5667 41.2 34.685 41.3634 34.775C41.5267 34.8617 41.7117 34.9067 41.9184 34.91C42.1317 34.9133 42.325 34.8633 42.4984 34.76C42.675 34.6533 42.8217 34.51 42.9384 34.33L44.1834 34.62C43.98 35.0633 43.6767 35.4267 43.2734 35.71C42.87 35.99 42.4184 36.13 41.9184 36.13ZM40.6884 33H43.1484C43.1117 32.8 43.0334 32.62 42.9134 32.46C42.7967 32.2967 42.6517 32.1667 42.4784 32.07C42.305 31.9733 42.1184 31.925 41.9184 31.925C41.7184 31.925 41.5334 31.9733 41.3634 32.07C41.1934 32.1633 41.0484 32.2917 40.9284 32.455C40.8117 32.615 40.7317 32.7967 40.6884 33Z" fill="#246BFD"/>
</svg>
