<svg width="63" height="38" viewBox="0 0 63 38" fill="none" xmlns="http://www.w3.org/2000/svg">
<path fill-rule="evenodd" clip-rule="evenodd" d="M31.7348 15.3462C27.8672 15.3462 24.5643 15.931 24.5643 18.2729C24.5643 20.6148 27.8462 21.2205 31.7348 21.2205C35.6024 21.2205 38.9043 20.6348 38.9043 18.2938C38.9043 15.9529 35.6234 15.3462 31.7348 15.3462Z" stroke="#9E9E9E" stroke-width="1.5" stroke-linecap="round" stroke-linejoin="round"/>
<path fill-rule="evenodd" clip-rule="evenodd" d="M31.7348 12.0059C34.2729 12.0059 36.33 9.94779 36.33 7.40969C36.33 4.8716 34.2729 2.81445 31.7348 2.81445C29.1967 2.81445 27.1386 4.8716 27.1386 7.40969C27.13 9.93922 29.1738 11.9973 31.7024 12.0059H31.7348Z" stroke="#9E9E9E" stroke-width="1.42857" stroke-linecap="round" stroke-linejoin="round"/>
<path d="M18.2002 36V29H20.5102C20.8869 29 21.2252 29.0917 21.5252 29.275C21.8285 29.4583 22.0685 29.7067 22.2452 30.02C22.4252 30.33 22.5152 30.6767 22.5152 31.06C22.5152 31.45 22.4235 31.8017 22.2402 32.115C22.0602 32.425 21.8169 32.6717 21.5102 32.855C21.2069 33.035 20.8735 33.125 20.5102 33.125H19.0402V36H18.2002ZM19.0402 32.285H20.4352C20.6619 32.285 20.8685 32.23 21.0552 32.12C21.2452 32.0067 21.3952 31.855 21.5052 31.665C21.6185 31.4717 21.6752 31.255 21.6752 31.015C21.6752 30.7717 21.6185 30.555 21.5052 30.365C21.3952 30.1717 21.2452 30.02 21.0552 29.91C20.8685 29.7967 20.6619 29.74 20.4352 29.74H19.0402V32.285ZM23.576 36V31H24.416V31.625C24.5926 31.3917 24.816 31.2067 25.086 31.07C25.356 30.93 25.6493 30.86 25.966 30.86C26.1593 30.86 26.346 30.885 26.526 30.935L26.186 31.775C26.0493 31.7317 25.916 31.71 25.786 31.71C25.536 31.71 25.306 31.7717 25.096 31.895C24.8893 32.015 24.7243 32.1783 24.601 32.385C24.4776 32.5917 24.416 32.8217 24.416 33.075V36H23.576ZM29.2865 36.13C28.8265 36.13 28.4065 36.0117 28.0265 35.775C27.6499 35.5383 27.3482 35.2217 27.1215 34.825C26.8982 34.425 26.7865 33.9833 26.7865 33.5C26.7865 33.1333 26.8515 32.7917 26.9815 32.475C27.1115 32.155 27.2899 31.875 27.5165 31.635C27.7465 31.3917 28.0132 31.2017 28.3165 31.065C28.6199 30.9283 28.9432 30.86 29.2865 30.86C29.7465 30.86 30.1649 30.9783 30.5415 31.215C30.9215 31.4517 31.2232 31.77 31.4465 32.17C31.6732 32.57 31.7865 33.0133 31.7865 33.5C31.7865 33.8633 31.7215 34.2033 31.5915 34.52C31.4615 34.8367 31.2815 35.1167 31.0515 35.36C30.8249 35.6 30.5599 35.7883 30.2565 35.925C29.9565 36.0617 29.6332 36.13 29.2865 36.13ZM29.2865 35.29C29.5999 35.29 29.8815 35.2083 30.1315 35.045C30.3849 34.8783 30.5832 34.66 30.7265 34.39C30.8732 34.1167 30.9465 33.82 30.9465 33.5C30.9465 33.1733 30.8715 32.8733 30.7215 32.6C30.5749 32.3267 30.3765 32.1083 30.1265 31.945C29.8765 31.7817 29.5965 31.7 29.2865 31.7C28.9732 31.7 28.6915 31.7833 28.4415 31.95C28.1915 32.1133 27.9932 32.3317 27.8465 32.605C27.6999 32.8783 27.6265 33.1767 27.6265 33.5C27.6265 33.8333 27.7015 34.1367 27.8515 34.41C28.0015 34.68 28.2032 34.895 28.4565 35.055C28.7099 35.2117 28.9865 35.29 29.2865 35.29ZM34.0172 29.765V31H35.4822V31.84H34.0172V36H33.1772V31.84H32.5322V31H33.1772V29.765C33.1772 29.5083 33.2389 29.2767 33.3622 29.07C33.4889 28.86 33.6572 28.6933 33.8672 28.57C34.0806 28.4433 34.3139 28.38 34.5672 28.38C34.7539 28.38 34.9356 28.4183 35.1122 28.495C35.2889 28.5683 35.4456 28.6783 35.5822 28.825L34.9822 29.42C34.9356 29.3567 34.8739 29.3083 34.7972 29.275C34.7239 29.2383 34.6472 29.22 34.5672 29.22C34.4172 29.22 34.2872 29.2733 34.1772 29.38C34.0706 29.4867 34.0172 29.615 34.0172 29.765ZM36.4514 31H37.2914V36H36.4514V31ZM36.8814 30.185C36.748 30.185 36.6364 30.1417 36.5464 30.055C36.4564 29.9683 36.4114 29.86 36.4114 29.73C36.4114 29.6 36.4564 29.4917 36.5464 29.405C36.6364 29.3183 36.7464 29.275 36.8764 29.275C37.0064 29.275 37.1164 29.3183 37.2064 29.405C37.2964 29.4917 37.3414 29.6 37.3414 29.73C37.3414 29.86 37.2964 29.9683 37.2064 30.055C37.1197 30.1417 37.0114 30.185 36.8814 30.185ZM38.7217 36V28.5H39.5617V36H38.7217ZM43.1139 36.13C42.6539 36.13 42.2339 36.0117 41.8539 35.775C41.4772 35.5383 41.1755 35.2217 40.9489 34.825C40.7255 34.425 40.6139 33.9833 40.6139 33.5C40.6139 33.1333 40.6789 32.7917 40.8089 32.475C40.9389 32.155 41.1172 31.875 41.3439 31.635C41.5739 31.3917 41.8405 31.2017 42.1439 31.065C42.4472 30.9283 42.7705 30.86 43.1139 30.86C43.4905 30.86 43.8355 30.9367 44.1489 31.09C44.4655 31.24 44.7355 31.45 44.9589 31.72C45.1855 31.99 45.3539 32.3033 45.4639 32.66C45.5772 33.0167 45.6189 33.3983 45.5889 33.805H41.5089C41.5489 34.0883 41.6422 34.3417 41.7889 34.565C41.9355 34.785 42.1222 34.96 42.3489 35.09C42.5789 35.22 42.8339 35.2867 43.1139 35.29C43.4139 35.29 43.6855 35.2133 43.9289 35.06C44.1722 34.9033 44.3689 34.69 44.5189 34.42L45.3739 34.62C45.1739 35.0633 44.8722 35.4267 44.4689 35.71C44.0655 35.99 43.6139 36.13 43.1139 36.13ZM41.4839 33.145H44.7439C44.7172 32.865 44.6272 32.61 44.4739 32.38C44.3205 32.1467 44.1255 31.96 43.8889 31.82C43.6522 31.68 43.3939 31.61 43.1139 31.61C42.8339 31.61 42.5772 31.6783 42.3439 31.815C42.1105 31.9517 41.9172 32.1367 41.7639 32.37C41.6139 32.6 41.5205 32.8583 41.4839 33.145Z" fill="#9E9E9E"/>
</svg>
