<svg width="63" height="38" viewBox="0 0 63 38" fill="none" xmlns="http://www.w3.org/2000/svg">
<path d="M27.1215 10.2017V17.0618" stroke="#9E9E9E" stroke-width="1.5" stroke-linecap="round" stroke-linejoin="round"/>
<path d="M31.7881 6.91895V17.0617" stroke="#9E9E9E" stroke-width="1.5" stroke-linecap="round" stroke-linejoin="round"/>
<path d="M36.3785 13.8267V17.0617" stroke="#9E9E9E" stroke-width="1.5" stroke-linecap="round" stroke-linejoin="round"/>
<path fill-rule="evenodd" clip-rule="evenodd" d="M36.4357 2H27.0643C23.7976 2 21.75 4.31208 21.75 7.58516V16.4148C21.75 19.6879 23.7881 22 27.0643 22H36.4357C39.7119 22 41.75 19.6879 41.75 16.4148V7.58516C41.75 4.31208 39.7119 2 36.4357 2Z" stroke="#9E9E9E" stroke-width="1.5" stroke-linecap="round" stroke-linejoin="round"/>
<path d="M13.9931 36.13C13.6165 36.13 13.2531 36.0717 12.9031 35.955C12.5531 35.835 12.2465 35.665 11.9831 35.445C11.7231 35.225 11.5381 34.9633 11.4281 34.66L12.2131 34.365C12.2798 34.5517 12.4031 34.715 12.5831 34.855C12.7665 34.9917 12.9815 35.0983 13.2281 35.175C13.4748 35.2517 13.7298 35.29 13.9931 35.29C14.2931 35.29 14.5715 35.2417 14.8281 35.145C15.0881 35.045 15.2981 34.9067 15.4581 34.73C15.6181 34.5533 15.6981 34.3467 15.6981 34.11C15.6981 33.8667 15.6148 33.6683 15.4481 33.515C15.2815 33.3583 15.0681 33.235 14.8081 33.145C14.5481 33.0517 14.2765 32.98 13.9931 32.93C13.5098 32.85 13.0765 32.7367 12.6931 32.59C12.3131 32.44 12.0115 32.2317 11.7881 31.965C11.5681 31.6983 11.4581 31.3467 11.4581 30.91C11.4581 30.5033 11.5748 30.1483 11.8081 29.845C12.0448 29.5417 12.3565 29.3067 12.7431 29.14C13.1298 28.9733 13.5465 28.89 13.9931 28.89C14.3631 28.89 14.7215 28.9483 15.0681 29.065C15.4181 29.1783 15.7265 29.345 15.9931 29.565C16.2598 29.785 16.4515 30.0533 16.5681 30.37L15.7731 30.66C15.7065 30.47 15.5815 30.3067 15.3981 30.17C15.2181 30.03 15.0048 29.9233 14.7581 29.85C14.5148 29.7733 14.2598 29.735 13.9931 29.735C13.6965 29.7317 13.4198 29.78 13.1631 29.88C12.9065 29.98 12.6981 30.1183 12.5381 30.295C12.3781 30.4717 12.2981 30.6767 12.2981 30.91C12.2981 31.19 12.3715 31.405 12.5181 31.555C12.6681 31.7017 12.8715 31.8117 13.1281 31.885C13.3848 31.9583 13.6731 32.0233 13.9931 32.08C14.4465 32.1567 14.8665 32.2783 15.2531 32.445C15.6398 32.6083 15.9498 32.8267 16.1831 33.1C16.4198 33.3733 16.5381 33.71 16.5381 34.11C16.5381 34.5167 16.4198 34.8717 16.1831 35.175C15.9498 35.4783 15.6398 35.7133 15.2531 35.88C14.8665 36.0467 14.4465 36.13 13.9931 36.13ZM20.3923 31.84H19.2573L19.2523 36H18.4123L18.4173 31.84H17.5573V31H18.4173L18.4123 29.43H19.2523L19.2573 31H20.3923V31.84ZM25.3817 31H26.2217V36H25.3817L25.3467 35.155C25.1901 35.445 24.9734 35.68 24.6967 35.86C24.4234 36.04 24.0967 36.13 23.7167 36.13C23.3501 36.13 23.0067 36.0617 22.6867 35.925C22.3667 35.785 22.0834 35.5933 21.8367 35.35C21.5934 35.1033 21.4034 34.82 21.2667 34.5C21.1301 34.18 21.0617 33.835 21.0617 33.465C21.0617 33.1083 21.1284 32.7717 21.2617 32.455C21.3951 32.1383 21.5801 31.8617 21.8167 31.625C22.0567 31.385 22.3334 31.1983 22.6467 31.065C22.9601 30.9283 23.2967 30.86 23.6567 30.86C24.0501 30.86 24.3951 30.9533 24.6917 31.14C24.9884 31.3233 25.2284 31.5617 25.4117 31.855L25.3817 31ZM23.7017 35.315C24.0317 35.315 24.3167 35.235 24.5567 35.075C24.8001 34.9117 24.9867 34.6917 25.1167 34.415C25.2501 34.1383 25.3167 33.8333 25.3167 33.5C25.3167 33.16 25.2501 32.8533 25.1167 32.58C24.9834 32.3033 24.7951 32.085 24.5517 31.925C24.3117 31.7617 24.0284 31.68 23.7017 31.68C23.3717 31.68 23.0717 31.7617 22.8017 31.925C22.5317 32.0883 22.3167 32.3083 22.1567 32.585C22.0001 32.8583 21.9217 33.1633 21.9217 33.5C21.9217 33.8367 22.0034 34.1433 22.1667 34.42C22.3301 34.6933 22.5467 34.9117 22.8167 35.075C23.0867 35.235 23.3817 35.315 23.7017 35.315ZM30.0111 31.84H28.8761L28.8711 36H28.0311L28.0361 31.84H27.1761V31H28.0361L28.0311 29.43H28.8711L28.8761 31H30.0111V31.84ZM31.0586 31H31.8986V36H31.0586V31ZM31.4886 30.185C31.3553 30.185 31.2436 30.1417 31.1536 30.055C31.0636 29.9683 31.0186 29.86 31.0186 29.73C31.0186 29.6 31.0636 29.4917 31.1536 29.405C31.2436 29.3183 31.3536 29.275 31.4836 29.275C31.6136 29.275 31.7236 29.3183 31.8136 29.405C31.9036 29.4917 31.9486 29.6 31.9486 29.73C31.9486 29.86 31.9036 29.9683 31.8136 30.055C31.7269 30.1417 31.6186 30.185 31.4886 30.185ZM34.7758 36.095C34.5058 36.085 34.2424 36.035 33.9858 35.945C33.7324 35.8517 33.5091 35.7267 33.3158 35.57C33.1258 35.41 32.9874 35.2267 32.9008 35.02L33.6208 34.71C33.6708 34.8233 33.7608 34.93 33.8908 35.03C34.0208 35.13 34.1708 35.21 34.3408 35.27C34.5108 35.33 34.6824 35.36 34.8558 35.36C35.0391 35.36 35.2108 35.3317 35.3708 35.275C35.5308 35.2183 35.6608 35.135 35.7608 35.025C35.8641 34.9117 35.9158 34.7767 35.9158 34.62C35.9158 34.4533 35.8591 34.3233 35.7458 34.23C35.6358 34.1333 35.4958 34.0583 35.3258 34.005C35.1591 33.9483 34.9891 33.895 34.8158 33.845C34.4724 33.7583 34.1658 33.655 33.8958 33.535C33.6258 33.4117 33.4124 33.2567 33.2558 33.07C33.1024 32.88 33.0258 32.6383 33.0258 32.345C33.0258 32.035 33.1108 31.7667 33.2808 31.54C33.4541 31.3133 33.6808 31.1383 33.9608 31.015C34.2408 30.8917 34.5408 30.83 34.8608 30.83C35.2641 30.83 35.6324 30.9167 35.9658 31.09C36.2991 31.2633 36.5474 31.4983 36.7108 31.795L36.0358 32.19C35.9791 32.07 35.8924 31.965 35.7758 31.875C35.6591 31.7817 35.5258 31.7083 35.3758 31.655C35.2258 31.6017 35.0724 31.5733 34.9158 31.57C34.7224 31.5633 34.5408 31.5883 34.3708 31.645C34.2041 31.7017 34.0691 31.7883 33.9658 31.905C33.8658 32.0183 33.8158 32.16 33.8158 32.33C33.8158 32.4967 33.8691 32.6233 33.9758 32.71C34.0858 32.7967 34.2274 32.8667 34.4008 32.92C34.5774 32.97 34.7691 33.0283 34.9758 33.095C35.2791 33.1917 35.5624 33.3033 35.8258 33.43C36.0891 33.5567 36.3008 33.715 36.4608 33.905C36.6241 34.095 36.7041 34.33 36.7008 34.61C36.7008 34.9167 36.6091 35.185 36.4258 35.415C36.2424 35.6417 36.0041 35.815 35.7108 35.935C35.4208 36.055 35.1091 36.1083 34.7758 36.095ZM40.3474 31.84H39.2124L39.2074 36H38.3674L38.3724 31.84H37.5124V31H38.3724L38.3674 29.43H39.2074L39.2124 31H40.3474V31.84ZM41.3949 31H42.2349V36H41.3949V31ZM41.8249 30.185C41.6916 30.185 41.5799 30.1417 41.4899 30.055C41.3999 29.9683 41.3549 29.86 41.3549 29.73C41.3549 29.6 41.3999 29.4917 41.4899 29.405C41.5799 29.3183 41.6899 29.275 41.8199 29.275C41.9499 29.275 42.0599 29.3183 42.1499 29.405C42.2399 29.4917 42.2849 29.6 42.2849 29.73C42.2849 29.86 42.2399 29.9683 42.1499 30.055C42.0633 30.1417 41.9549 30.185 41.8249 30.185ZM47.0126 34.68L47.7626 35.085C47.5359 35.4017 47.2476 35.655 46.8976 35.845C46.5509 36.035 46.1742 36.13 45.7676 36.13C45.3076 36.13 44.8876 36.0117 44.5076 35.775C44.1309 35.5383 43.8292 35.2217 43.6026 34.825C43.3792 34.425 43.2676 33.9833 43.2676 33.5C43.2676 33.1333 43.3326 32.7917 43.4626 32.475C43.5926 32.155 43.7709 31.875 43.9976 31.635C44.2276 31.3917 44.4942 31.2017 44.7976 31.065C45.1009 30.9283 45.4242 30.86 45.7676 30.86C46.1742 30.86 46.5509 30.955 46.8976 31.145C47.2476 31.335 47.5359 31.59 47.7626 31.91L47.0126 32.315C46.8526 32.1183 46.6626 31.9667 46.4426 31.86C46.2226 31.7533 45.9976 31.7 45.7676 31.7C45.4576 31.7 45.1759 31.7833 44.9226 31.95C44.6726 32.1133 44.4742 32.3317 44.3276 32.605C44.1809 32.8783 44.1076 33.1767 44.1076 33.5C44.1076 33.8233 44.1809 34.1217 44.3276 34.395C44.4776 34.665 44.6776 34.8817 44.9276 35.045C45.1809 35.2083 45.4609 35.29 45.7676 35.29C46.0142 35.29 46.2459 35.2333 46.4626 35.12C46.6792 35.0067 46.8626 34.86 47.0126 34.68ZM50.3902 36.095C50.1202 36.085 49.8569 36.035 49.6002 35.945C49.3469 35.8517 49.1236 35.7267 48.9302 35.57C48.7402 35.41 48.6019 35.2267 48.5152 35.02L49.2352 34.71C49.2852 34.8233 49.3752 34.93 49.5052 35.03C49.6352 35.13 49.7852 35.21 49.9552 35.27C50.1252 35.33 50.2969 35.36 50.4702 35.36C50.6536 35.36 50.8252 35.3317 50.9852 35.275C51.1452 35.2183 51.2752 35.135 51.3752 35.025C51.4786 34.9117 51.5302 34.7767 51.5302 34.62C51.5302 34.4533 51.4736 34.3233 51.3602 34.23C51.2502 34.1333 51.1102 34.0583 50.9402 34.005C50.7736 33.9483 50.6036 33.895 50.4302 33.845C50.0869 33.7583 49.7802 33.655 49.5102 33.535C49.2402 33.4117 49.0269 33.2567 48.8702 33.07C48.7169 32.88 48.6402 32.6383 48.6402 32.345C48.6402 32.035 48.7252 31.7667 48.8952 31.54C49.0686 31.3133 49.2952 31.1383 49.5752 31.015C49.8552 30.8917 50.1552 30.83 50.4752 30.83C50.8786 30.83 51.2469 30.9167 51.5802 31.09C51.9136 31.2633 52.1619 31.4983 52.3252 31.795L51.6502 32.19C51.5936 32.07 51.5069 31.965 51.3902 31.875C51.2736 31.7817 51.1402 31.7083 50.9902 31.655C50.8402 31.6017 50.6869 31.5733 50.5302 31.57C50.3369 31.5633 50.1552 31.5883 49.9852 31.645C49.8186 31.7017 49.6836 31.7883 49.5802 31.905C49.4802 32.0183 49.4302 32.16 49.4302 32.33C49.4302 32.4967 49.4836 32.6233 49.5902 32.71C49.7002 32.7967 49.8419 32.8667 50.0152 32.92C50.1919 32.97 50.3836 33.0283 50.5902 33.095C50.8936 33.1917 51.1769 33.3033 51.4402 33.43C51.7036 33.5567 51.9152 33.715 52.0752 33.905C52.2386 34.095 52.3186 34.33 52.3152 34.61C52.3152 34.9167 52.2236 35.185 52.0402 35.415C51.8569 35.6417 51.6186 35.815 51.3252 35.935C51.0352 36.055 50.7236 36.1083 50.3902 36.095Z" fill="#9E9E9E"/>
</svg>
