<svg width="24" height="24" viewBox="0 0 24 24" fill="none" xmlns="http://www.w3.org/2000/svg">
<g id="Group">
<path id="Exclude" fill-rule="evenodd" clip-rule="evenodd" d="M21.799 8.67026L22.6393 9.51026C23.3045 10.1636 23.6663 11.0503 23.6663 11.9836C23.678 12.9169 23.3162 13.8048 22.6626 14.4686C22.6548 14.4771 22.6471 14.4847 22.6393 14.4922C22.6354 14.4959 22.6315 14.4997 22.6276 14.5036L21.799 15.3319C21.4722 15.6586 21.2854 16.1019 21.2854 16.5698V17.7703C21.2854 19.7069 19.7099 21.2831 17.7725 21.2831H16.5704C16.1036 21.2831 15.6601 21.4686 15.3333 21.7953L14.493 22.6353C13.8044 23.3248 12.9057 23.6619 12.0071 23.6619C11.1084 23.6619 10.2098 23.3248 9.52118 22.6481L8.66921 21.7953C8.34242 21.4686 7.89893 21.2831 7.43209 21.2831H6.22999C4.29262 21.2831 2.71705 19.7069 2.71705 17.7703V16.5698C2.71705 16.1019 2.53032 15.6586 2.20353 15.3203L1.36323 14.4919C-0.00226761 13.1281 -0.0139385 10.8986 1.35156 9.52309L2.20353 8.67026C2.53032 8.34359 2.71705 7.90026 2.71705 7.42193V6.23193C2.71705 4.29526 4.29262 2.72143 6.22999 2.72143H7.43209C7.89893 2.72143 8.34242 2.53359 8.66921 2.20693L9.50951 1.36693C10.875 -0.00857439 13.1041 -0.0085743 14.4813 1.35643L15.3333 2.20693C15.6601 2.53359 16.1036 2.72143 16.5704 2.72143H17.7725C19.7099 2.72143 21.2854 4.29526 21.2854 6.23193V7.43476C21.2854 7.90026 21.4722 8.34359 21.799 8.67026ZM8.99599 16.0203C9.2761 16.0203 9.53286 15.9153 9.71959 15.7169L15.7184 9.72143C16.1152 9.32476 16.1152 8.67026 15.7184 8.27359C15.3216 7.87809 14.6797 7.87809 14.2829 8.27359L8.28407 14.2703C7.88726 14.6669 7.88726 15.3203 8.28407 15.7169C8.4708 15.9153 8.72756 16.0203 8.99599 16.0203ZM13.9795 14.9936C13.9795 15.5653 14.4346 16.0203 15.0065 16.0203C15.5667 16.0203 16.0219 15.5653 16.0219 14.9936C16.0219 14.4348 15.5667 13.9786 15.0065 13.9786C14.4346 13.9786 13.9795 14.4348 13.9795 14.9936ZM9.00766 7.98193C9.56787 7.98193 10.023 8.43693 10.023 8.99693C10.023 9.56976 9.56787 10.0236 9.00766 10.0236C8.44746 10.0236 7.98063 9.56976 7.98063 8.99693C7.98063 8.43693 8.44746 7.98193 9.00766 7.98193Z" fill="#EA1E61"/>
</g>
</svg>
